<?xml version="1.0" encoding="UTF-8"?> <svg xmlns="http://www.w3.org/2000/svg" width="83" height="28" viewBox="0 0 83 28" fill="none"><path d="M29.5638 14.8784H27.6055V1.54274H34.0588C36.7166 1.54274 38.5724 3.16073 38.5724 5.46882C38.5724 7.52512 37.1083 8.88199 34.8748 8.94727C35.8586 9.02654 36.6327 9.74927 37.2108 11.0409L38.9314 14.8784H36.7819L35.066 11.0455C34.6137 10.0384 33.9749 9.69332 32.4315 9.69332H29.5638V14.8784ZM29.5638 7.87483H33.807C35.5649 7.87483 36.614 7.00754 36.614 5.56674C36.614 4.15391 35.6022 3.36123 33.7977 3.36123H29.5638V7.87483Z" fill="#B71A34"></path><path d="M41.6274 8.21055C41.6274 11.4139 43.2547 13.3396 45.9591 13.3396C48.146 13.3396 49.5402 12.0853 49.9925 9.70265H51.9509C51.396 13.1065 49.1438 15.1581 45.9545 15.1581C42.2196 15.1581 39.669 12.3418 39.669 8.21055C39.669 4.07464 42.2196 1.26297 45.9545 1.26297C49.1438 1.26297 51.396 3.3146 51.9509 6.71845H49.9925C49.5402 4.33576 48.146 3.08146 45.9591 3.08146C43.2547 3.08146 41.6274 5.0072 41.6274 8.21055Z" fill="#B71A34"></path><path d="M65.6623 1.54274H68.9775V14.8784H67.0191V3.19337L62.5568 14.8784H59.8058L55.3994 3.18871V14.8784H53.4877V1.54274H56.8123L61.2046 13.2744L65.6623 1.54274Z" fill="#B71A34"></path><path d="M70.5543 1.54274H77.0402C79.5069 1.54274 81.3207 3.01152 81.3207 5.00254C81.3207 6.57857 80.1876 7.80488 78.6209 7.99606C80.5373 8.17325 81.8849 9.50215 81.8849 11.2927C81.8849 13.4003 80.0244 14.8784 77.3713 14.8784H70.5543V1.54274ZM76.947 7.3013C78.3971 7.3013 79.3763 6.47599 79.3763 5.25433C79.3763 4.07464 78.4577 3.36123 76.933 3.36123H72.5127V7.3013H76.947ZM72.5127 13.0599H77.0915C78.9986 13.0599 79.9405 12.3931 79.9405 11.0362C79.9405 9.68399 79.0079 9.02654 77.0962 9.02654H72.5127V13.0599Z" fill="#B71A34"></path><path d="M28.1192 20.9524H27.8034V18.0196H29.1683C29.7548 18.0196 30.1609 18.3662 30.1609 18.8686C30.1609 19.3219 29.8307 19.6254 29.3334 19.6398C29.5518 19.6572 29.7343 19.8244 29.8615 20.1084L30.2399 20.9524H29.8933L29.5159 20.1094C29.4072 19.8684 29.2298 19.7597 28.9293 19.7597H28.1192V20.9524ZM28.1192 19.4654H29.1313C29.5713 19.4654 29.8451 19.2429 29.8451 18.884C29.8451 18.5292 29.5774 18.3128 29.1303 18.3128H28.1192V19.4654ZM30.5633 18.0196H32.4901V18.3139H30.8791V19.3424H32.3671V19.6357H30.8791V20.658H32.5311V20.9524H30.5633V18.0196ZM33.0404 19.486C33.0404 20.2438 33.4301 20.7237 34.0546 20.7237C34.6545 20.7237 35.1047 20.292 35.1047 19.7351V19.7218H34.0361V19.4347H35.4072V20.9524H35.1047V20.1022C34.9683 20.6468 34.5376 21.0139 33.9746 21.0139C33.2404 21.0139 32.7246 20.3801 32.7246 19.486C32.7246 18.5774 33.2732 17.958 34.0802 17.958C34.7427 17.958 35.2308 18.3754 35.3641 19.0009H35.0483C34.9334 18.5436 34.5796 18.2523 34.0812 18.2523C33.4434 18.2523 33.0404 18.7302 33.0404 19.486ZM36.1186 18.0196V20.9524H35.8027V18.0196H36.1186ZM36.4819 19.486C36.4819 18.5774 37.0315 17.958 37.8386 17.958C38.6456 17.958 39.1963 18.5774 39.1963 19.486C39.1963 20.3945 38.6456 21.0139 37.8386 21.0139C37.0315 21.0139 36.4819 20.3945 36.4819 19.486ZM36.7977 19.486C36.7977 20.2427 37.1997 20.7196 37.8386 20.7196C38.4764 20.7196 38.8804 20.2427 38.8804 19.486C38.8804 18.7292 38.4764 18.2523 37.8386 18.2523C37.1997 18.2523 36.7977 18.7292 36.7977 19.486ZM42.1093 18.0196V20.9524H41.6069L39.8687 18.239V20.9524H39.5601V18.0196H40.1046L41.8007 20.6591V18.0196H42.1093ZM42.6745 20.9524H42.3453L43.501 18.0196H43.9665L45.1089 20.9524H44.7736L44.4629 20.1525H42.9882L42.6745 20.9524ZM43.101 19.8654H44.3511L43.7297 18.2646L43.101 19.8654ZM45.3443 18.0196H45.6601V20.658H47.2301V20.9524H45.3443V18.0196ZM48.7106 19.486C48.7106 20.2427 49.1136 20.7196 49.7515 20.7196C50.2704 20.7196 50.6098 20.4037 50.7216 19.8479H51.0384C50.9092 20.5699 50.4334 21.0139 49.7505 21.0139C48.9444 21.0139 48.3948 20.3945 48.3948 19.486C48.3948 18.5774 48.9444 17.958 49.7505 17.958C50.4334 17.958 50.9092 18.402 51.0384 19.124H50.7216C50.6098 18.5682 50.2704 18.2523 49.7515 18.2523C49.1136 18.2523 48.7106 18.7292 48.7106 19.486ZM51.3951 19.486C51.3951 18.5774 51.9447 17.958 52.7517 17.958C53.5588 17.958 54.1094 18.5774 54.1094 19.486C54.1094 20.3945 53.5588 21.0139 52.7517 21.0139C51.9447 21.0139 51.3951 20.3945 51.3951 19.486ZM51.7109 19.486C51.7109 20.2427 52.1129 20.7196 52.7517 20.7196C53.3896 20.7196 53.7936 20.2427 53.7936 19.486C53.7936 18.7292 53.3896 18.2523 52.7517 18.2523C52.1129 18.2523 51.7109 18.7292 51.7109 19.486ZM54.4732 18.0196H54.7891V20.658H56.359V20.9524H54.4732V18.0196ZM56.6603 18.0196H56.9762V20.658H58.5461V20.9524H56.6603V18.0196ZM58.8474 18.0196H60.7742V18.3139H59.1633V19.3424H60.6512V19.6357H59.1633V20.658H60.8153V20.9524H58.8474V18.0196ZM61.3245 19.486C61.3245 20.2438 61.7142 20.7237 62.3387 20.7237C62.9386 20.7237 63.3888 20.292 63.3888 19.7351V19.7218H62.3202V19.4347H63.6913V20.9524H63.3888V20.1022C63.2524 20.6468 62.8217 21.0139 62.2587 21.0139C61.5245 21.0139 61.0087 20.3801 61.0087 19.486C61.0087 18.5774 61.5573 17.958 62.3643 17.958C63.0268 17.958 63.5149 18.3754 63.6482 19.0009H63.3324C63.2175 18.5436 62.8637 18.2523 62.3654 18.2523C61.7275 18.2523 61.3245 18.7302 61.3245 19.486ZM64.0869 18.0196H66.0137V18.3139H64.4027V19.3424H65.8906V19.6357H64.4027V20.658H66.0547V20.9524H64.0869V18.0196ZM67.2175 19.486C67.2175 18.5774 67.7671 17.958 68.5742 17.958C69.3812 17.958 69.9319 18.5774 69.9319 19.486C69.9319 20.3945 69.3812 21.0139 68.5742 21.0139C67.7671 21.0139 67.2175 20.3945 67.2175 19.486ZM67.5333 19.486C67.5333 20.2427 67.9353 20.7196 68.5742 20.7196C69.212 20.7196 69.616 20.2427 69.616 19.486C69.616 18.7292 69.212 18.2523 68.5742 18.2523C67.9353 18.2523 67.5333 18.7292 67.5333 19.486ZM72.2225 18.0196V18.3139H70.6115V19.3834H72.0994V19.6767H70.6115V20.9524H70.2957V18.0196H72.2225ZM30.6029 22.0196H31.1218V24.9524H30.8049V22.3139L29.6718 24.9524H29.2349L28.1131 22.3128V24.9524H27.8034V22.0196H28.3233L29.4574 24.695L30.6029 22.0196ZM31.6869 24.9524H31.3577L32.5134 22.0196H32.9789L34.1213 24.9524H33.786L33.4753 24.1525H32.0007L31.6869 24.9524ZM32.1135 23.8654H33.3635L32.7421 22.2646L32.1135 23.8654ZM36.906 22.0196V24.9524H36.4035L34.6653 22.239V24.9524H34.3567V22.0196H34.9012L36.5973 24.6591V22.0196H36.906ZM37.4711 24.9524H37.1419L38.2976 22.0196H38.7632L39.9055 24.9524H39.5702L39.2595 24.1525H37.7849L37.4711 24.9524ZM37.8977 23.8654H39.1477L38.5263 22.2646L37.8977 23.8654ZM40.2266 23.486C40.2266 24.2438 40.6163 24.7237 41.2408 24.7237C41.8407 24.7237 42.2908 24.292 42.2908 23.7351V23.7218H41.2223V23.4347H42.5934V24.9524H42.2908V24.1022C42.1545 24.6468 41.7238 25.0139 41.1608 25.0139C40.4266 25.0139 39.9108 24.3801 39.9108 23.486C39.9108 22.5774 40.4594 21.958 41.2664 21.958C41.9289 21.958 42.417 22.3754 42.5503 23.0009H42.2344C42.1196 22.5436 41.7658 22.2523 41.2674 22.2523C40.6296 22.2523 40.2266 22.7302 40.2266 23.486ZM42.9889 22.0196H44.9158V22.3139H43.3048V23.3424H44.7927V23.6357H43.3048V24.658H44.9568V24.9524H42.9889V22.0196ZM48.0516 22.0196H48.5705V24.9524H48.2536V22.3139L47.1205 24.9524H46.6837L45.5618 22.3128V24.9524H45.2521V22.0196H45.772L46.9062 24.695L48.0516 22.0196ZM48.9654 22.0196H50.8922V22.3139H49.2812V23.3424H50.7692V23.6357H49.2812V24.658H50.9332V24.9524H48.9654V22.0196ZM53.7779 22.0196V24.9524H53.2754L51.5373 22.239V24.9524H51.2286V22.0196H51.7731L53.4692 24.6591V22.0196H53.7779ZM56.3837 22.0196V22.3139H55.3572V24.9524H55.0413V22.3139H54.0138V22.0196H56.3837ZM57.5215 22.0196H58.8936C59.4361 22.0196 59.835 22.3426 59.835 22.7815C59.835 23.1301 59.5827 23.4049 59.2412 23.449C59.6658 23.487 59.959 23.7721 59.959 24.1638C59.959 24.6263 59.5489 24.9524 58.9664 24.9524H57.5215V22.0196ZM58.9141 23.3352C59.274 23.3352 59.5212 23.1229 59.5212 22.8204C59.5212 22.5148 59.2658 22.3139 58.8772 22.3139H57.8374V23.3352H58.9141ZM57.8374 24.658H58.9254C59.3838 24.658 59.6453 24.4632 59.6453 24.1248C59.6453 23.7946 59.3991 23.6152 58.9367 23.6152H57.8374V24.658ZM60.3916 24.9524H60.0624L61.2181 22.0196H61.6837L62.826 24.9524H62.4907L62.18 24.1525H60.7054L60.3916 24.9524ZM60.8182 23.8654H62.0682L61.4468 22.2646L60.8182 23.8654ZM65.6107 22.0196V24.9524H65.1082L63.3701 22.239V24.9524H63.0614V22.0196H63.6059L65.302 24.6591V22.0196H65.6107ZM66.2876 23.486C66.2876 24.2438 66.6772 24.7237 67.3017 24.7237C67.9016 24.7237 68.3518 24.292 68.3518 23.7351V23.7218H67.2833V23.4347H68.6543V24.9524H68.3518V24.1022C68.2154 24.6468 67.7847 25.0139 67.2218 25.0139C66.4875 25.0139 65.9717 24.3801 65.9717 23.486C65.9717 22.5774 66.5204 21.958 67.3274 21.958C67.9898 21.958 68.4779 22.3754 68.6113 23.0009H68.2954C68.1806 22.5436 67.8268 22.2523 67.3284 22.2523C66.6906 22.2523 66.2876 22.7302 66.2876 23.486ZM69.2201 24.9524H68.8909L70.0466 22.0196H70.5122L71.6545 24.9524H71.3192L71.0085 24.1525H69.5339L69.2201 24.9524ZM69.6467 23.8654H70.8967L70.2753 22.2646L69.6467 23.8654ZM71.8899 22.0196H72.2058V24.658H73.7757V24.9524H71.8899V22.0196ZM73.8349 23.486C73.8349 22.5774 74.3845 21.958 75.1916 21.958C75.9986 21.958 76.5493 22.5774 76.5493 23.486C76.5493 24.3945 75.9986 25.0139 75.1916 25.0139C74.3845 25.0139 73.8349 24.3945 73.8349 23.486ZM74.1507 23.486C74.1507 24.2427 74.5527 24.7196 75.1916 24.7196C75.8294 24.7196 76.2334 24.2427 76.2334 23.486C76.2334 22.7292 75.8294 22.2523 75.1916 22.2523C74.5527 22.2523 74.1507 22.7292 74.1507 23.486ZM77.2289 24.9524H76.913V22.0196H78.2779C78.8645 22.0196 79.2706 22.3662 79.2706 22.8686C79.2706 23.3219 78.9404 23.6254 78.443 23.6398C78.6614 23.6572 78.844 23.8244 78.9711 24.1084L79.3495 24.9524H79.0029L78.6256 24.1094C78.5169 23.8684 78.3395 23.7597 78.039 23.7597H77.2289V24.9524ZM77.2289 23.4654H78.241C78.6809 23.4654 78.9547 23.2429 78.9547 22.884C78.9547 22.5292 78.6871 22.3128 78.24 22.3128H77.2289V23.4654ZM79.673 22.0196H81.5998V22.3139H79.9888V23.3424H81.4767V23.6357H79.9888V24.658H81.6408V24.9524H79.673V22.0196Z" fill="#B71A34"></path><path d="M3.86207 2.1121H6.11448V0H9.97656V2.1121H12.2287V0H16.0908V2.1121H18.343V0H22.2051V16.2123C22.2051 22.344 17.2344 27.3149 11.1026 27.3149C4.97087 27.3149 0 22.344 0 16.2123V0H3.86207V2.1121Z" fill="#B71A34"></path><path d="M3.09082 0.775385V3.04785H3.20508L6.77734 3.04687H6.8916V0.775385H9.2002V3.04687H13.0039V0.775385H15.3174V3.04687H19.124V0.775385H21.4307V16.1943C21.4307 21.8982 16.8073 26.5222 11.1035 26.5225C5.39954 26.5225 0.775391 21.8983 0.775391 16.1943V0.775385H3.09082Z" stroke="white" stroke-width="0.229888"></path><path fill-rule="evenodd" clip-rule="evenodd" d="M8.6054 18.9896V26.2386L10.0648 26.5045V19.5348C9.57908 19.2862 9.08866 19.1097 8.6054 18.9896Z" fill="white"></path><path fill-rule="evenodd" clip-rule="evenodd" d="M12.1425 26.4967L13.6019 26.2308L13.6019 18.9807C13.0938 19.0787 12.5988 19.2363 12.1425 19.4734L12.1425 26.4967Z" fill="white"></path><path fill-rule="evenodd" clip-rule="evenodd" d="M15.622 25.5161L17.0815 24.521L17.1322 19.029C16.6887 18.9524 16.1934 18.8888 15.675 18.8608L15.622 25.5161Z" fill="white"></path><path fill-rule="evenodd" clip-rule="evenodd" d="M5.06835 18.939V24.5168L5.78044 25.0264L6.52778 25.4474V18.7754C5.99741 18.7909 5.50382 18.855 5.06835 18.939Z" fill="white"></path><path fill-rule="evenodd" clip-rule="evenodd" d="M11.163 17.0738C11.3908 16.8209 11.6263 16.5882 11.8698 16.377C10.5154 14.7985 10.6238 13.1012 10.8935 12.3701L10.2675 11.5442C8.89729 13.6656 10.2936 16.1145 11.163 17.0738Z" fill="white"></path><path d="M7.78963 12.0136C6.28029 12.0206 5.20741 12.9845 4.85963 13.4656L4.19017 12.8744C4.92745 11.8032 6.32318 11.3326 6.92889 11.2312C5.45433 10.2643 5.01034 8.71849 4.97266 8.06641L5.91165 7.83165C6.38462 9.96003 8.6069 11.3674 9.65892 11.805L9.3807 12.657C8.73384 12.5944 8.05046 12.202 7.78963 12.0136Z" fill="white"></path><path d="M12.7706 9.07786C12.8061 8.0134 11.9812 6.95487 11.5642 6.55865C11.3957 6.75676 11.0427 7.17071 10.9788 7.24168C11.9723 8.1784 11.925 9.40015 11.7771 9.89394L11.4134 10.2133L12.0787 10.8253C15.0592 9.18609 15.6387 7.12044 15.5559 6.29252H14.6423C14.5358 7.83243 13.3502 8.79104 12.7706 9.07786Z" fill="white"></path><path d="M13.8439 11.6148C13.5069 11.7478 12.8203 12.0261 12.7706 12.0761L12.9658 13.0341C14.7966 11.7354 17.1644 12.1914 18.1195 12.5817L18.3767 11.7479C17.4542 11.1518 15.6269 11.2393 14.8286 11.3576C14.8711 9.54799 16.6559 8.85906 17.5429 8.74078L17.2413 7.88035C14.6157 8.49773 13.8824 10.6272 13.8439 11.6148Z" fill="white"></path><path d="M15.9357 10.5372C16.0323 10.1062 16.5482 9.36284 17.8394 9.83722C17.6403 10.3039 16.9807 11.0972 15.9357 10.5372Z" fill="white"></path><path d="M13.3851 7.62503C12.9738 7.46389 12.3178 6.84065 12.9834 5.63685C13.4142 5.90478 14.0978 6.67751 13.3851 7.62503Z" fill="white"></path><path d="M8.70421 7.28045C8.34811 7.01916 7.87398 6.24842 8.82624 5.25577C9.17389 5.6253 9.6362 6.54758 8.70421 7.28045Z" fill="white"></path><path d="M5.89114 10.9732C5.57488 11.2815 4.73669 11.6225 3.91406 10.52C4.33571 10.2378 5.32144 9.93342 5.89114 10.9732Z" fill="white"></path><path d="M10.5983 9.9632C9.83562 7.65923 10.9604 6.11338 11.6193 5.62791C11.4672 5.42842 11.1495 5.00401 11.0956 4.90229C9.59513 5.72075 9.42888 7.90405 9.542 9.04635C9.43722 8.95631 9.3388 8.87192 9.24631 8.79262C8.29532 7.9772 7.97136 7.69942 7.81402 7.34721C7.73273 7.16523 7.69593 6.96338 7.6401 6.65725C7.62053 6.54991 7.5985 6.42913 7.57151 6.29252H6.65164C6.58521 6.92352 6.89648 8.48327 8.67294 9.67427C10.8935 11.163 12.183 12.7565 11.2873 14.9151L11.9409 15.9197C12.6429 14.9473 13.3933 12.4264 10.779 10.1221C10.7175 10.0679 10.6573 10.0149 10.5983 9.9632Z" fill="white"></path><path d="M16.4546 15.2834C12.5213 16.2474 11.2809 18.1916 11.1523 19.0432C13.0033 17.1922 16.6474 16.9865 18.2381 17.1151L18.2863 16.0546C15.0471 16.2089 12.8876 17.34 12.2128 17.8863C13.3696 16.8451 15.6512 16.2956 16.6474 16.151L16.4546 15.2834Z" fill="white"></path><path d="M5.70556 15.2834C9.63887 16.2474 10.8793 18.1916 11.0078 19.0432C9.15685 17.1922 5.51276 16.9865 3.92208 17.1151L3.87388 16.0546C7.11307 16.2089 9.27253 17.34 9.94736 17.8863C8.79051 16.8451 6.50894 16.2956 5.51276 16.151L5.70556 15.2834Z" fill="white"></path><path d="M19.1056 17.3564C13.0803 16.5851 11.4896 19.2844 11.4414 19.3808C13.2538 17.607 16.9847 18.0633 18.6235 18.5132L19.1056 17.3564Z" fill="white"></path><path d="M3.10146 17.3564C9.12675 16.5851 10.7174 19.2844 10.7656 19.3808C8.95322 17.607 5.22236 18.0633 3.58349 18.5132L3.10146 17.3564Z" fill="white"></path></svg> 